# xmcd CD database file
# Copyright (C) 1993-1998 Ti Kan
# 
# Track frame offsets:
#     150
#     13813
#     32680
#     45610
#     58805
#     71780
#     81953
#     101908
#     114370
#     127203
#     139890
#     150068
#     164608
#     175090
#     188468
# 
# Disc length: 2639 seconds
# 
# Revision: 1
# Processed by: cddbd v1.4b41PL1 Copyright (c) Steve Scherf et al.
# Submitted via: DiscPlay 4.0.3
# 
DISCID=cc0a4d0f
DTITLE=Luiz Bordon - Luiz Bordon - Boleros Inesquec veis
DYEAR=1900
DGENRE=
TTITLE0=Dos Almas - La  ltima Noche
TTITLE1=Besame Mucho
TTITLE2=Quizas, Quizas, Quizas - Qui n Sera
TTITLE3=El Reloj
TTITLE4=Aquellos Ojos Verdes
TTITLE5=Amapola
TTITLE6=Lamento Borincano
TTITLE7=Toda Una Vida - Angustia
TTITLE8=Solamente Una Vez
TTITLE9=Que Murmuren - Hist ria de Um Amor
TTITLE10=Angelitos Negros
TTITLE11=Sin Ti
TTITLE12=La Mucura
TTITLE13=El Cigarron
TTITLE14=Pa-Ran-Pan-Pan
EXTD=
EXTT0=
EXTT1=
EXTT2=
EXTT3=
EXTT4=
EXTT5=
EXTT6=
EXTT7=
EXTT8=
EXTT9=
EXTT10=
EXTT11=
EXTT12=
EXTT13=
EXTT14=
PLAYORDER=
